<?xml version="1.0" standalone="no"?>
<!DOCTYPE svg PUBLIC "-//W3C//DTD SVG 20010904//EN"
 "http://www.w3.org/TR/2001/REC-SVG-20010904/DTD/svg10.dtd">
<svg version="1.0" xmlns="http://www.w3.org/2000/svg"
 width="90.000000pt" height="65.000000pt" viewBox="0 0 90.000000 65.000000"
 preserveAspectRatio="xMidYMid meet">

<g transform="translate(0.000000,65.000000) scale(0.100000,-0.100000)"
fill="#000000" stroke="none">
<path d="M141 439 c-6 -18 -11 -34 -11 -35 0 -2 29 -4 64 -4 58 0 64 2 59 19
-3 10 0 22 6 25 26 16 7 26 -48 26 -57 0 -59 -1 -70 -31z"/>
<path d="M639 416 l-12 -26 -145 1 c-85 0 -149 -4 -155 -10 -7 -7 41 -11 146
-13 l156 -3 16 34 c9 18 14 36 11 39 -3 2 -11 -7 -17 -22z"/>
<path d="M87 318 l-14 -33 50 -3 c60 -4 77 2 77 26 0 11 11 23 28 29 23 9 16
11 -50 12 l-78 1 -13 -32z"/>
<path d="M395 312 c-19 -35 -23 -37 -72 -40 -29 -2 -53 -7 -53 -13 0 -5 64 -9
156 -9 l155 0 15 36 c18 44 11 57 -9 17 l-15 -28 -91 3 -92 3 20 35 c11 19 17
34 13 34 -4 0 -16 -17 -27 -38z"/>
<path d="M861 266 c-13 -33 -86 -92 -156 -127 -79 -39 -164 -52 -252 -39 -37
5 -75 10 -83 11 -42 2 33 18 91 18 65 1 65 1 83 37 9 20 15 39 12 42 -3 2 -11
-7 -17 -22 -12 -26 -13 -26 -121 -26 -59 0 -108 3 -108 8 0 4 8 17 18 29 13
17 30 23 77 26 l60 3 -63 2 c-60 2 -65 0 -96 -33 -21 -22 -28 -35 -19 -35 8 0
34 -20 58 -45 80 -81 187 -117 284 -95 101 22 161 63 208 142 17 29 35 70 38
91 8 41 -1 50 -14 13z"/>
<path d="M35 200 c-8 -16 -15 -31 -15 -35 0 -3 39 -5 88 -4 55 1 78 4 62 8
-25 8 -27 12 -15 44 6 15 0 17 -49 17 -51 0 -57 -2 -71 -30z"/>
</g>
</svg>
